BenchNine-Regular.ufo
<glyph name="exclam" format="1">
  <advance width="366"/>
  <unicode hex="0021"/>
  <outline>
    <contour>
      <point x="170" y="432" type="line" smooth="yes"/>
      <point x="155" y="432"/>
      <point x="152" y="461"/>
      <point x="150" y="504" type="curve" smooth="yes"/>
      <point x="108" y="1411" type="line" smooth="yes"/>
      <point x="108" y="1420" type="line" smooth="yes"/>
      <point x="108" y="1458"/>
      <point x="120" y="1482"/>
      <point x="135" y="1482" type="curve" smooth="yes"/>
      <point x="232" y="1482" type="line" smooth="yes"/>
      <point x="245" y="1482"/>
      <point x="259" y="1458"/>
      <point x="259" y="1419" type="curve" smooth="yes"/>
      <point x="259" y="1411" type="line"/>
      <point x="218" y="504" type="line" smooth="yes"/>
      <point x="216" y="461"/>
      <point x="213" y="432"/>
      <point x="197" y="432" type="curve" smooth="yes"/>
    </contour>
    <contour>
      <point x="125" y="0" type="line" smooth="yes"/>
      <point x="110" y="0"/>
      <point x="98" y="10"/>
      <point x="98" y="53" type="curve" smooth="yes"/>
      <point x="98" y="186" type="line" smooth="yes"/>
      <point x="98" y="229"/>
      <point x="110" y="238"/>
      <point x="125" y="238" type="curve" smooth="yes"/>
      <point x="242" y="238" type="line" smooth="yes"/>
      <point x="257" y="238"/>
      <point x="268" y="229"/>
      <point x="268" y="186" type="curve" smooth="yes"/>
      <point x="268" y="53" type="line" smooth="yes"/>
      <point x="268" y="10"/>
      <point x="257" y="0"/>
      <point x="242" y="0" type="curve" smooth="yes"/>
    </contour>
  </outline>
</glyph>
<glyph name="quotedbl" format="1">
  <advance width="478"/>
  <unicode hex="0022"/>
  <outline>
    <contour>
      <point x="122" y="908" type="line" smooth="yes"/>
      <point x="108" y="908"/>
      <point x="103" y="935"/>
      <point x="101" y="974" type="curve"/>
      <point x="67" y="1367" type="line" smooth="yes"/>
      <point x="67" y="1375" type="line" smooth="yes"/>
      <point x="67" y="1409"/>
      <point x="78" y="1438"/>
      <point x="92" y="1438" type="curve" smooth="yes"/>
      <point x="174" y="1438" type="line" smooth="yes"/>
      <point x="188" y="1438"/>
      <point x="198" y="1407"/>
      <point x="198" y="1371" type="curve" smooth="yes"/>
      <point x="198" y="1366" type="line" smooth="yes"/>
      <point x="166" y="974" type="line" smooth="yes"/>
      <point x="163" y="935"/>
      <point x="160" y="908"/>
      <point x="145" y="908" type="curve" smooth="yes"/>
    </contour>
    <contour>
      <point x="335" y="908" type="line" smooth="yes"/>
      <point x="321" y="908"/>
      <point x="316" y="935"/>
      <point x="314" y="974" type="curve"/>
      <point x="280" y="1367" type="line" smooth="yes"/>
      <point x="280" y="1375" type="line" smooth="yes"/>
      <point x="280" y="1409"/>
      <point x="291" y="1438"/>
      <point x="305" y="1438" type="curve" smooth="yes"/>
      <point x="387" y="1438" type="line" smooth="yes"/>
      <point x="401" y="1438"/>
      <point x="411" y="1407"/>
      <point x="411" y="1371" type="curve" smooth="yes"/>
      <point x="411" y="1366" type="line" smooth="yes"/>
      <point x="379" y="974" type="line" smooth="yes"/>
      <point x="376" y="935"/>
      <point x="373" y="908"/>
      <point x="358" y="908" type="curve" smooth="yes"/>
    </contour>
  </outline>
</glyph>
<glyph name="at" format="1">
  <advance width="1326"/>
  <unicode hex="0040"/>
  <outline>
    <contour>
      <point x="659" y="319" type="curve" smooth="yes"/>
      <point x="768" y="319"/>
      <point x="851" y="430"/>
      <point x="851" y="652" type="curve" smooth="yes"/>
      <point x="851" y="870"/>
      <point x="770" y="988"/>
      <point x="661" y="988" type="curve" smooth="yes"/>
      <point x="540" y="988"/>
      <point x="476" y="867"/>
      <point x="476" y="654" type="curve" smooth="yes"/>
      <point x="476" y="437"/>
      <point x="541" y="319"/>
    </contour>
    <contour>
      <point x="688" y="-141" type="curve" smooth="yes"/>
      <point x="255" y="-141"/>
      <point x="80" y="234"/>
      <point x="80" y="674" type="curve" smooth="yes"/>
      <point x="80" y="1111"/>
      <point x="245" y="1495"/>
      <point x="672" y="1495" type="curve" smooth="yes"/>
      <point x="1127" y="1495"/>
      <point x="1250" y="1134"/>
      <point x="1251" y="699" type="curve" smooth="yes"/>
      <point x="1251" y="364"/>
      <point x="1157" y="233"/>
      <point x="1051" y="233" type="curve" smooth="yes"/>
      <point x="957" y="233"/>
      <point x="916" y="308"/>
      <point x="907" y="427" type="curve" smooth="yes"/>
      <point x="905" y="447"/>
      <point x="902" y="464"/>
      <point x="897" y="464" type="curve" smooth="yes"/>
      <point x="891" y="464"/>
      <point x="888" y="443"/>
      <point x="886" y="434" type="curve" smooth="yes"/>
      <point x="845" y="297"/>
      <point x="773" y="217"/>
      <point x="643" y="217" type="curve" smooth="yes"/>
      <point x="487" y="217"/>
      <point x="363" y="357"/>
      <point x="363" y="660" type="curve" smooth="yes"/>
      <point x="363" y="956"/>
      <point x="484" y="1097"/>
      <point x="639" y="1097" type="curve" smooth="yes"/>
      <point x="762" y="1097"/>
      <point x="842" y="1011"/>
      <point x="876" y="874" type="curve" smooth="yes"/>
      <point x="877" y="867"/>
      <point x="882" y="857"/>
      <point x="884" y="857" type="curve" smooth="yes"/>
      <point x="887" y="857"/>
      <point x="888" y="862"/>
      <point x="889" y="870" type="curve" smooth="yes"/>
      <point x="901" y="1004" type="line"/>
      <point x="906" y="1039"/>
      <point x="917" y="1051"/>
      <point x="938" y="1051" type="curve" smooth="yes"/>
      <point x="946" y="1051" type="line" smooth="yes"/>
      <point x="964" y="1051"/>
      <point x="975" y="1029"/>
      <point x="975" y="998" type="curve" smooth="yes"/>
      <point x="975" y="495" type="line" smooth="yes"/>
      <point x="975" y="350"/>
      <point x="1005" y="322"/>
      <point x="1050" y="322" type="curve" smooth="yes"/>
      <point x="1098" y="322"/>
      <point x="1142" y="396"/>
      <point x="1142" y="699" type="curve" smooth="yes"/>
      <point x="1142" y="1090"/>
      <point x="1043" y="1391"/>
      <point x="675" y="1391" type="curve" smooth="yes"/>
      <point x="319" y="1391"/>
      <point x="195" y="1030"/>
      <point x="195" y="670" type="curve" smooth="yes"/>
      <point x="195" y="316"/>
      <point x="305" y="-44"/>
      <point x="697" y="-44" type="curve" smooth="yes"/>
      <point x="783" y="-44"/>
      <point x="884" y="-12"/>
      <point x="948" y="20" type="curve"/>
      <point x="950" y="20" type="line" smooth="yes"/>
      <point x="962" y="20"/>
      <point x="983" y="-28"/>
      <point x="983" y="-53" type="curve" smooth="yes"/>
      <point x="983" y="-60"/>
      <point x="982" y="-65"/>
      <point x="978" y="-67" type="curve" smooth="yes"/>
      <point x="910" y="-105"/>
      <point x="794" y="-141"/>
    </contour>
  </outline>
</glyph>
<glyph name="G" format="1">
  <advance width="882"/>
  <unicode hex="0047"/>
  <outline>
    <contour>
      <point x="773" y="-16" type="curve" smooth="yes"/>
      <point x="758" y="-16"/>
      <point x="738" y="-7"/>
      <point x="729" y="43" type="curve"/>
      <point x="728" y="60"/>
      <point x="708" y="190"/>
      <point x="708" y="219" type="curve" smooth="yes"/>
      <point x="708" y="225"/>
      <point x="706" y="228"/>
      <point x="705" y="228" type="curve" smooth="yes"/>
      <point x="703" y="228"/>
      <point x="701" y="227"/>
      <point x="699" y="220" type="curve" smooth="yes"/>
      <point x="676" y="71"/>
      <point x="596" y="-14"/>
      <point x="475" y="-14" type="curve" smooth="yes"/>
      <point x="289" y="-14"/>
      <point x="91" y="64"/>
      <point x="91" y="720" type="curve" smooth="yes"/>
      <point x="91" y="1403"/>
      <point x="324" y="1453"/>
      <point x="544" y="1453" type="curve" smooth="yes"/>
      <point x="610" y="1453"/>
      <point x="677" y="1435"/>
      <point x="709" y="1422" type="curve"/>
      <point x="713" y="1418"/>
      <point x="721" y="1417"/>
      <point x="721" y="1404" type="curve" smooth="yes"/>
      <point x="721" y="1306" type="line" smooth="yes"/>
      <point x="721" y="1295"/>
      <point x="718" y="1294"/>
      <point x="714" y="1294" type="curve" smooth="yes"/>
      <point x="711" y="1294"/>
      <point x="625" y="1321"/>
      <point x="554" y="1321" type="curve" smooth="yes"/>
      <point x="395" y="1321"/>
      <point x="252" y="1265"/>
      <point x="252" y="720" type="curve" smooth="yes"/>
      <point x="252" y="204"/>
      <point x="364" y="115"/>
      <point x="490" y="115" type="curve" smooth="yes"/>
      <point x="632" y="115"/>
      <point x="659" y="298"/>
      <point x="659" y="550" type="curve" smooth="yes"/>
      <point x="659" y="594"/>
      <point x="656" y="605"/>
      <point x="650" y="605" type="curve" smooth="yes"/>
      <point x="510" y="605" type="line" smooth="yes"/>
      <point x="494" y="605"/>
      <point x="480" y="608"/>
      <point x="480" y="645" type="curve" smooth="yes"/>
      <point x="480" y="705" type="line" smooth="yes"/>
      <point x="480" y="742"/>
      <point x="493" y="745"/>
      <point x="508" y="745" type="curve" smooth="yes"/>
      <point x="776" y="745" type="line" smooth="yes"/>
      <point x="791" y="745"/>
      <point x="802" y="735"/>
      <point x="802" y="692" type="curve" smooth="yes"/>
      <point x="802" y="46" type="line" smooth="yes"/>
      <point x="802" y="3"/>
      <point x="788" y="-16"/>
    </contour>
  </outline>
</glyph>
<glyph name="I" format="1">
  <advance width="387"/>
  <unicode hex="0049"/>
  <outline>
    <contour>
      <point x="139" y="0" type="line" smooth="yes"/>
      <point x="125" y="0"/>
      <point x="115" y="4"/>
      <point x="115" y="47" type="curve" smooth="yes"/>
      <point x="115" y="1391" type="line" smooth="yes"/>
      <point x="115" y="1434"/>
      <point x="125" y="1438"/>
      <point x="139" y="1438" type="curve" smooth="yes"/>
      <point x="251" y="1438" type="line" smooth="yes"/>
      <point x="266" y="1438"/>
      <point x="276" y="1434"/>
      <point x="276" y="1391" type="curve" smooth="yes"/>
      <point x="276" y="47" type="line" smooth="yes"/>
      <point x="276" y="4"/>
      <point x="266" y="0"/>
      <point x="251" y="0" type="curve" smooth="yes"/>
    </contour>
  </outline>
</glyph>
<glyph name="L" format="1">
  <advance width="617"/>
  <unicode hex="004C"/>
  <outline>
    <contour>
      <point x="136" y="0" type="line" smooth="yes"/>
      <point x="122" y="0"/>
      <point x="112" y="4"/>
      <point x="112" y="47" type="curve" smooth="yes"/>
      <point x="112" y="1391" type="line" smooth="yes"/>
      <point x="112" y="1434"/>
      <point x="122" y="1438"/>
      <point x="136" y="1438" type="curve" smooth="yes"/>
      <point x="249" y="1438" type="line" smooth="yes"/>
      <point x="263" y="1438"/>
      <point x="273" y="1434"/>
      <point x="273" y="1391" type="curve" smooth="yes"/>
      <point x="273" y="149" type="line" smooth="yes"/>
      <point x="273" y="129"/>
      <point x="279" y="128"/>
      <point x="286" y="128" type="curve" smooth="yes"/>
      <point x="548" y="128" type="line" smooth="yes"/>
      <point x="562" y="128"/>
      <point x="573" y="127"/>
      <point x="573" y="94" type="curve" smooth="yes"/>
      <point x="573" y="36" type="line" smooth="yes"/>
      <point x="573" y="2"/>
      <point x="562" y="0"/>
      <point x="548" y="0" type="curve" smooth="yes"/>
    </contour>
  </outline>
</glyph>
<glyph name="S" format="1">
  <advance width="761"/>
  <unicode hex="0053"/>
  <outline>
    <contour>
      <point x="710" y="385" type="curve" smooth="yes"/>
      <point x="710" y="153"/>
      <point x="580" y="-14"/>
      <point x="375" y="-14" type="curve" smooth="yes"/>
      <point x="246" y="-14"/>
      <point x="132" y="39"/>
      <point x="48" y="169" type="curve" smooth="yes"/>
      <point x="44" y="175"/>
      <point x="43" y="181"/>
      <point x="43" y="189" type="curve" smooth="yes"/>
      <point x="43" y="226"/>
      <point x="85" y="281"/>
      <point x="114" y="281" type="curve" smooth="yes"/>
      <point x="120" y="281"/>
      <point x="125" y="279"/>
      <point x="130" y="273" type="curve" smooth="yes"/>
      <point x="202" y="173"/>
      <point x="280" y="124"/>
      <point x="374" y="124" type="curve" smooth="yes"/>
      <point x="491" y="124"/>
      <point x="558" y="226"/>
      <point x="558" y="367" type="curve" smooth="yes"/>
      <point x="558" y="504"/>
      <point x="499" y="565"/>
      <point x="412" y="624" type="curve" smooth="yes"/>
      <point x="280" y="712" type="line" smooth="yes"/>
      <point x="186" y="775"/>
      <point x="84" y="871"/>
      <point x="84" y="1069" type="curve" smooth="yes"/>
      <point x="84" y="1296"/>
      <point x="208" y="1453"/>
      <point x="398" y="1453" type="curve" smooth="yes"/>
      <point x="507" y="1453"/>
      <point x="607" y="1416"/>
      <point x="681" y="1322" type="curve" smooth="yes"/>
      <point x="687" y="1314"/>
      <point x="690" y="1304"/>
      <point x="690" y="1294" type="curve" smooth="yes"/>
      <point x="690" y="1252"/>
      <point x="645" y="1204"/>
      <point x="623" y="1204" type="curve" smooth="yes"/>
      <point x="619" y="1204"/>
      <point x="616" y="1205"/>
      <point x="614" y="1208" type="curve" smooth="yes"/>
      <point x="558" y="1277"/>
      <point x="499" y="1313"/>
      <point x="418" y="1313" type="curve" smooth="yes"/>
      <point x="308" y="1313"/>
      <point x="236" y="1214"/>
      <point x="236" y="1090" type="curve" smooth="yes"/>
      <point x="236" y="961"/>
      <point x="300" y="901"/>
      <point x="374" y="852" type="curve" smooth="yes"/>
      <point x="505" y="767" type="line" smooth="yes"/>
      <point x="611" y="698"/>
      <point x="710" y="589"/>
    </contour>
  </outline>
</glyph>
<glyph name="Z" format="1">
  <advance width="684"/>
  <unicode hex="005A"/>
  <outline>
    <contour>
      <point x="106" y="0" type="line" smooth="yes"/>
      <point x="92" y="0"/>
      <point x="82" y="2"/>
      <point x="82" y="36" type="curve" smooth="yes"/>
      <point x="82" y="79" type="line" smooth="yes"/>
      <point x="82" y="113"/>
      <point x="89" y="127"/>
      <point x="95" y="150" type="curve" smooth="yes"/>
      <point x="426" y="1270" type="line" smooth="yes"/>
      <point x="428" y="1278"/>
      <point x="430" y="1285"/>
      <point x="430" y="1292" type="curve" smooth="yes"/>
      <point x="430" y="1302"/>
      <point x="427" y="1310"/>
      <point x="421" y="1310" type="curve" smooth="yes"/>
      <point x="114" y="1310" type="line" smooth="yes"/>
      <point x="99" y="1310"/>
      <point x="89" y="1311"/>
      <point x="89" y="1346" type="curve" smooth="yes"/>
      <point x="89" y="1402" type="line" smooth="yes"/>
      <point x="89" y="1436"/>
      <point x="99" y="1438"/>
      <point x="114" y="1438" type="curve" smooth="yes"/>
      <point x="594" y="1438" type="line" smooth="yes"/>
      <point x="608" y="1438"/>
      <point x="618" y="1436"/>
      <point x="618" y="1402" type="curve" smooth="yes"/>
      <point x="618" y="1369" type="line" smooth="yes"/>
      <point x="618" y="1324"/>
      <point x="609" y="1296"/>
      <point x="603" y="1274" type="curve" smooth="yes"/>
      <point x="274" y="162" type="line" smooth="yes"/>
      <point x="272" y="155"/>
      <point x="271" y="149"/>
      <point x="271" y="142" type="curve" smooth="yes"/>
      <point x="271" y="135"/>
      <point x="272" y="128"/>
      <point x="277" y="128" type="curve" smooth="yes"/>
      <point x="605" y="128" type="line" smooth="yes"/>
      <point x="618" y="128"/>
      <point x="629" y="131"/>
      <point x="629" y="97" type="curve" smooth="yes"/>
      <point x="629" y="36" type="line" smooth="yes"/>
      <point x="629" y="2"/>
      <point x="618" y="0"/>
      <point x="605" y="0" type="curve" smooth="yes"/>
    </contour>
  </outline>
</glyph>
<glyph name="asciicircum" format="1">
  <advance width="1030"/>
  <unicode hex="005E"/>
  <outline>
    <contour>
      <point x="122" y="305" type="line" smooth="yes"/>
      <point x="101" y="305"/>
      <point x="94" y="317"/>
      <point x="94" y="334" type="curve" smooth="yes"/>
      <point x="94" y="345"/>
      <point x="97" y="359"/>
      <point x="102" y="372" type="curve" smooth="yes"/>
      <point x="413" y="1244" type="line"/>
      <point x="430" y="1286"/>
      <point x="445" y="1311"/>
      <point x="492" y="1311" type="curve" smooth="yes"/>
      <point x="535" y="1311" type="line" smooth="yes"/>
      <point x="582" y="1311"/>
      <point x="594" y="1286"/>
      <point x="612" y="1243" type="curve"/>
      <point x="929" y="373" type="line" smooth="yes"/>
      <point x="933" y="361"/>
      <point x="937" y="348"/>
      <point x="937" y="336" type="curve" smooth="yes"/>
      <point x="937" y="319"/>
      <point x="929" y="305"/>
      <point x="908" y="305" type="curve" smooth="yes"/>
      <point x="850" y="305" type="line" smooth="yes"/>
      <point x="824" y="305"/>
      <point x="808" y="319"/>
      <point x="790" y="374" type="curve"/>
      <point x="534" y="1098" type="line" smooth="yes"/>
      <point x="526" y="1123"/>
      <point x="522" y="1129"/>
      <point x="513" y="1129" type="curve" smooth="yes"/>
      <point x="504" y="1129"/>
      <point x="500" y="1123"/>
      <point x="492" y="1098" type="curve" smooth="yes"/>
      <point x="245" y="374" type="line" smooth="yes"/>
      <point x="227" y="319"/>
      <point x="215" y="305"/>
      <point x="179" y="305" type="curve" smooth="yes"/>
    </contour>
  </outline>
</glyph>
<glyph name="b" format="1">
  <advance width="740"/>
  <unicode hex="0062"/>
  <outline>
    <contour>
      <point x="385" y="102" type="curve" smooth="yes"/>
      <point x="466" y="102"/>
      <point x="522" y="219"/>
      <point x="522" y="509" type="curve" smooth="yes"/>
      <point x="522" y="782"/>
      <point x="466" y="905"/>
      <point x="387" y="905" type="curve" smooth="yes"/>
      <point x="306" y="905"/>
      <point x="237" y="750"/>
      <point x="237" y="509" type="curve" smooth="yes"/>
      <point x="237" y="278"/>
      <point x="300" y="102"/>
    </contour>
    <contour>
      <point x="412" y="-11" type="curve" smooth="yes"/>
      <point x="330" y="-11"/>
      <point x="244" y="37"/>
      <point x="199" y="200" type="curve" smooth="yes"/>
      <point x="198" y="203"/>
      <point x="197" y="205"/>
      <point x="195" y="205" type="curve" smooth="yes"/>
      <point x="183" y="205"/>
      <point x="176" y="0"/>
      <point x="141" y="0" type="curve" smooth="yes"/>
      <point x="121" y="0" type="line" smooth="yes"/>
      <point x="107" y="0"/>
      <point x="101" y="16"/>
      <point x="101" y="59" type="curve" smooth="yes"/>
      <point x="101" y="1367" type="line" smooth="yes"/>
      <point x="101" y="1410"/>
      <point x="111" y="1438"/>
      <point x="126" y="1438" type="curve" smooth="yes"/>
      <point x="213" y="1438" type="line" smooth="yes"/>
      <point x="227" y="1438"/>
      <point x="237" y="1410"/>
      <point x="237" y="1367" type="curve" smooth="yes"/>
      <point x="237" y="867" type="line" smooth="yes"/>
      <point x="237" y="856"/>
      <point x="239" y="854"/>
      <point x="241" y="854" type="curve" smooth="yes"/>
      <point x="243" y="854"/>
      <point x="245" y="858"/>
      <point x="246" y="859" type="curve" smooth="yes"/>
      <point x="286" y="969"/>
      <point x="355" y="1018"/>
      <point x="425" y="1018" type="curve" smooth="yes"/>
      <point x="544" y="1018"/>
      <point x="662" y="900"/>
      <point x="662" y="501" type="curve" smooth="yes"/>
      <point x="662" y="119"/>
      <point x="531" y="-11"/>
    </contour>
  </outline>
</glyph>
<glyph name="c" format="1">
  <advance width="558"/>
  <unicode hex="0063"/>
  <outline>
    <contour>
      <point x="376" y="-11" type="curve" smooth="yes"/>
      <point x="372" y="-11" type="line" smooth="yes"/>
      <point x="234" y="-11"/>
      <point x="81" y="45"/>
      <point x="81" y="508" type="curve" smooth="yes"/>
      <point x="81" y="955"/>
      <point x="229" y="1018"/>
      <point x="364" y="1018" type="curve" smooth="yes"/>
      <point x="403" y="1018"/>
      <point x="455" y="1009"/>
      <point x="490" y="996" type="curve"/>
      <point x="494" y="996"/>
      <point x="501" y="986"/>
      <point x="501" y="983" type="curve" smooth="yes"/>
      <point x="501" y="897" type="line" smooth="yes"/>
      <point x="501" y="891"/>
      <point x="494" y="881"/>
      <point x="490" y="883" type="curve" smooth="yes"/>
      <point x="461" y="892"/>
      <point x="431" y="901"/>
      <point x="396" y="901" type="curve" smooth="yes"/>
      <point x="314" y="901"/>
      <point x="225" y="878"/>
      <point x="225" y="508" type="curve" smooth="yes"/>
      <point x="225" y="136"/>
      <point x="305" y="107"/>
      <point x="397" y="107" type="curve" smooth="yes"/>
      <point x="428" y="107"/>
      <point x="462" y="115"/>
      <point x="490" y="124" type="curve"/>
      <point x="494" y="123"/>
      <point x="502" y="112"/>
      <point x="502" y="106" type="curve" smooth="yes"/>
      <point x="502" y="26" type="line" smooth="yes"/>
      <point x="502" y="20"/>
      <point x="494" y="9"/>
      <point x="490" y="8" type="curve" smooth="yes"/>
      <point x="460" y="-3"/>
      <point x="417" y="-11"/>
    </contour>
  </outline>
</glyph>
<glyph name="o" format="1">
  <advance width="739"/>
  <unicode hex="006F"/>
  <outline>
    <contour>
      <point x="371" y="-11" type="curve" smooth="yes"/>
      <point x="242" y="-11"/>
      <point x="81" y="36"/>
      <point x="81" y="505" type="curve" smooth="yes"/>
      <point x="81" y="976"/>
      <point x="242" y="1018"/>
      <point x="371" y="1018" type="curve" smooth="yes"/>
      <point x="499" y="1018"/>
      <point x="658" y="976"/>
      <point x="658" y="505" type="curve" smooth="yes"/>
      <point x="658" y="36"/>
      <point x="498" y="-11"/>
    </contour>
    <contour>
      <point x="370" y="102" type="curve" smooth="yes"/>
      <point x="452" y="102"/>
      <point x="514" y="156"/>
      <point x="514" y="505" type="curve" smooth="yes"/>
      <point x="514" y="856"/>
      <point x="450" y="905"/>
      <point x="370" y="905" type="curve" smooth="yes"/>
      <point x="289" y="905"/>
      <point x="226" y="855"/>
      <point x="226" y="505" type="curve" smooth="yes"/>
      <point x="226" y="157"/>
      <point x="286" y="102"/>
    </contour>
  </outline>
</glyph>
<glyph name="q" format="1">
  <advance width="743"/>
  <unicode hex="0071"/>
  <outline>
    <contour>
      <point x="363" y="102" type="curve" smooth="yes"/>
      <point x="446" y="102"/>
      <point x="508" y="245"/>
      <point x="508" y="502" type="curve" smooth="yes"/>
      <point x="508" y="745"/>
      <point x="449" y="905"/>
      <point x="364" y="905" type="curve" smooth="yes"/>
      <point x="282" y="905"/>
      <point x="225" y="760"/>
      <point x="225" y="502" type="curve" smooth="yes"/>
      <point x="225" y="201"/>
      <point x="286" y="102"/>
    </contour>
    <contour>
      <point x="532" y="-369" type="line" smooth="yes"/>
      <point x="518" y="-369"/>
      <point x="508" y="-357"/>
      <point x="508" y="-314" type="curve" smooth="yes"/>
      <point x="508" y="145" type="line" smooth="yes"/>
      <point x="508" y="153"/>
      <point x="506" y="156"/>
      <point x="503" y="156" type="curve" smooth="yes"/>
      <point x="502" y="156"/>
      <point x="499" y="154"/>
      <point x="498" y="151" type="curve" smooth="yes"/>
      <point x="461" y="42"/>
      <point x="398" y="-11"/>
      <point x="330" y="-11" type="curve" smooth="yes"/>
      <point x="192" y="-11"/>
      <point x="80" y="110"/>
      <point x="80" y="509" type="curve" smooth="yes"/>
      <point x="80" y="893"/>
      <point x="212" y="1018"/>
      <point x="340" y="1018" type="curve" smooth="yes"/>
      <point x="425" y="1018"/>
      <point x="500" y="947"/>
      <point x="540" y="785" type="curve" smooth="yes"/>
      <point x="542" y="779"/>
      <point x="543" y="777"/>
      <point x="546" y="777" type="curve" smooth="yes"/>
      <point x="547" y="777"/>
      <point x="550" y="781"/>
      <point x="551" y="788" type="curve"/>
      <point x="551" y="806"/>
      <point x="567" y="920"/>
      <point x="570" y="941" type="curve" smooth="yes"/>
      <point x="578" y="998"/>
      <point x="591" y="1009"/>
      <point x="603" y="1009" type="curve" smooth="yes"/>
      <point x="623" y="1009" type="line" smooth="yes"/>
      <point x="637" y="1009"/>
      <point x="644" y="992"/>
      <point x="644" y="949" type="curve" smooth="yes"/>
      <point x="644" y="-314" type="line" smooth="yes"/>
      <point x="644" y="-357"/>
      <point x="636" y="-369"/>
      <point x="621" y="-369" type="curve" smooth="yes"/>
    </contour>
  </outline>
</glyph>
<glyph name="paragraph" format="1">
  <advance width="1134"/>
  <unicode hex="00B6"/>
  <outline>
    <contour>
      <point x="593" y="-1" type="line" smooth="yes"/>
      <point x="555" y="-1"/>
      <point x="544" y="28"/>
      <point x="544" y="71" type="curve" smooth="yes"/>
      <point x="544" y="821" type="line"/>
      <point x="521" y="821" type="line" smooth="yes"/>
      <point x="351" y="821"/>
      <point x="154" y="901"/>
      <point x="154" y="1131" type="curve" smooth="yes"/>
      <point x="154" y="1351"/>
      <point x="289" y="1438"/>
      <point x="617" y="1438" type="curve" smooth="yes"/>
      <point x="765" y="1438"/>
      <point x="862" y="1424"/>
      <point x="906" y="1414" type="curve" smooth="yes"/>
      <point x="949" y="1405"/>
      <point x="950" y="1379"/>
      <point x="950" y="1336" type="curve" smooth="yes"/>
      <point x="950" y="71" type="line" smooth="yes"/>
      <point x="950" y="28"/>
      <point x="939" y="-1"/>
      <point x="901" y="-1" type="curve" smooth="yes"/>
      <point x="876" y="-1" type="line" smooth="yes"/>
      <point x="838" y="-1"/>
      <point x="827" y="28"/>
      <point x="827" y="71" type="curve" smooth="yes"/>
      <point x="827" y="800" type="line" smooth="yes"/>
      <point x="827" y="812"/>
      <point x="818" y="821"/>
      <point x="808" y="821" type="curve" smooth="yes"/>
      <point x="671" y="821" type="line"/>
      <point x="671" y="71" type="line" smooth="yes"/>
      <point x="671" y="28"/>
      <point x="660" y="-1"/>
      <point x="623" y="-1" type="curve" smooth="yes"/>
    </contour>
  </outline>
</glyph>
<glyph name="cedilla" format="1">
  <advance width="457"/>
  <unicode hex="00B8"/>
  <outline>
    <contour>
      <point x="257" y="-598" type="curve" smooth="yes"/>
      <point x="178" y="-598"/>
      <point x="115" y="-544"/>
      <point x="115" y="-436" type="curve" smooth="yes"/>
      <point x="115" y="-410"/>
      <point x="116" y="-345"/>
      <point x="141" y="-345" type="curve" smooth="yes"/>
      <point x="183" y="-345" type="line" smooth="yes"/>
      <point x="198" y="-345"/>
      <point x="202" y="-360"/>
      <point x="202" y="-378" type="curve" smooth="yes"/>
      <point x="202" y="-396"/>
      <point x="198" y="-418"/>
      <point x="198" y="-431" type="curve" smooth="yes"/>
      <point x="198" y="-483"/>
      <point x="219" y="-525"/>
      <point x="262" y="-525" type="curve" smooth="yes"/>
      <point x="302" y="-525"/>
      <point x="325" y="-486"/>
      <point x="325" y="-379" type="curve" smooth="yes"/>
      <point x="325" y="-303"/>
      <point x="289" y="-210"/>
      <point x="256" y="-210" type="curve" smooth="yes"/>
      <point x="232" y="-210" type="line"/>
      <point x="232" y="-210"/>
      <point x="222" y="-211"/>
      <point x="222" y="-200" type="curve" smooth="yes"/>
      <point x="222" y="-145" type="line" smooth="yes"/>
      <point x="222" y="-135"/>
      <point x="224" y="-128"/>
      <point x="232" y="-128" type="curve" smooth="yes"/>
      <point x="283" y="-128" type="line" smooth="yes"/>
      <point x="352" y="-128"/>
      <point x="408" y="-251"/>
      <point x="408" y="-362" type="curve" smooth="yes"/>
      <point x="408" y="-523"/>
      <point x="365" y="-598"/>
    </contour>
  </outline>
</glyph>
<glyph name="guillemotright" format="1">
  <advance width="778"/>
  <unicode hex="00BB"/>
  <outline>
    <contour>
      <point x="398" y="223" type="curve" smooth="yes"/>
      <point x="392" y="223"/>
      <point x="387" y="236"/>
      <point x="387" y="261" type="curve" smooth="yes"/>
      <point x="387" y="341" type="line" smooth="yes"/>
      <point x="387" y="385"/>
      <point x="393" y="403"/>
      <point x="411" y="423" type="curve"/>
      <point x="619" y="620" type="line" smooth="yes"/>
      <point x="622" y="623"/>
      <point x="623" y="629"/>
      <point x="623" y="634" type="curve" smooth="yes"/>
      <point x="623" y="639"/>
      <point x="622" y="645"/>
      <point x="620" y="648" type="curve" smooth="yes"/>
      <point x="410" y="860" type="line"/>
      <point x="393" y="880"/>
      <point x="387" y="900"/>
      <point x="387" y="945" type="curve" smooth="yes"/>
      <point x="387" y="1025" type="line" smooth="yes"/>
      <point x="387" y="1052"/>
      <point x="392" y="1067"/>
      <point x="399" y="1067" type="curve" smooth="yes"/>
      <point x="402" y="1067"/>
      <point x="406" y="1064"/>
      <point x="410" y="1059" type="curve" smooth="yes"/>
      <point x="687" y="772" type="line" smooth="yes"/>
      <point x="708" y="749"/>
      <point x="711" y="721"/>
      <point x="711" y="687" type="curve" smooth="yes"/>
      <point x="711" y="584" type="line" smooth="yes"/>
      <point x="711" y="551"/>
      <point x="708" y="521"/>
      <point x="687" y="501" type="curve" smooth="yes"/>
      <point x="410" y="231" type="line" smooth="yes"/>
      <point x="405" y="227"/>
      <point x="401" y="223"/>
    </contour>
    <contour>
      <point x="89" y="223" type="curve" smooth="yes"/>
      <point x="82" y="223"/>
      <point x="77" y="235"/>
      <point x="77" y="261" type="curve" smooth="yes"/>
      <point x="77" y="341" type="line" smooth="yes"/>
      <point x="77" y="385"/>
      <point x="84" y="403"/>
      <point x="101" y="423" type="curve"/>
      <point x="310" y="620" type="line" smooth="yes"/>
      <point x="313" y="623"/>
      <point x="314" y="629"/>
      <point x="314" y="634" type="curve" smooth="yes"/>
      <point x="314" y="639"/>
      <point x="313" y="645"/>
      <point x="310" y="648" type="curve" smooth="yes"/>
      <point x="101" y="860" type="line"/>
      <point x="83" y="880"/>
      <point x="77" y="900"/>
      <point x="77" y="945" type="curve" smooth="yes"/>
      <point x="77" y="1025" type="line" smooth="yes"/>
      <point x="77" y="1052"/>
      <point x="83" y="1067"/>
      <point x="90" y="1067" type="curve" smooth="yes"/>
      <point x="93" y="1067"/>
      <point x="97" y="1064"/>
      <point x="101" y="1059" type="curve" smooth="yes"/>
      <point x="377" y="772" type="line" smooth="yes"/>
      <point x="398" y="749"/>
      <point x="401" y="721"/>
      <point x="401" y="687" type="curve" smooth="yes"/>
      <point x="402" y="584" type="line" smooth="yes"/>
      <point x="402" y="551"/>
      <point x="398" y="521"/>
      <point x="377" y="501" type="curve" smooth="yes"/>
      <point x="100" y="231" type="line" smooth="yes"/>
      <point x="95" y="227"/>
      <point x="92" y="223"/>
    </contour>
  </outline>
</glyph>
<glyph name="onequarter" format="1">
  <advance width="1926"/>
  <unicode hex="00BC"/>
  <outline>
    <contour>
      <point x="1496" y="288" type="line" smooth="yes"/>
      <point x="1477" y="288"/>
      <point x="1466" y="299"/>
      <point x="1466" y="333" type="curve" smooth="yes"/>
      <point x="1466" y="516" type="line"/>
      <point x="1157" y="516" type="line" smooth="yes"/>
      <point x="1133" y="516"/>
      <point x="1113" y="532"/>
      <point x="1113" y="559" type="curve" smooth="yes"/>
      <point x="1113" y="562"/>
      <point x="1113" y="566"/>
      <point x="1114" y="570" type="curve" smooth="yes"/>
      <point x="1226" y="1385" type="line"/>
      <point x="1232" y="1419"/>
      <point x="1236" y="1438"/>
      <point x="1256" y="1438" type="curve" smooth="yes"/>
      <point x="1306" y="1438" type="line" smooth="yes"/>
      <point x="1324" y="1438"/>
      <point x="1331" y="1418"/>
      <point x="1331" y="1399" type="curve" smooth="yes"/>
      <point x="1331" y="1394"/>
      <point x="1331" y="1390"/>
      <point x="1330" y="1385" type="curve" smooth="yes"/>
      <point x="1246" y="652" type="line" smooth="yes"/>
      <point x="1245" y="644"/>
      <point x="1248" y="631"/>
      <point x="1261" y="631" type="curve" smooth="yes"/>
      <point x="1466" y="631" type="line"/>
      <point x="1466" y="1392" type="line" smooth="yes"/>
      <point x="1466" y="1426"/>
      <point x="1477" y="1438"/>
      <point x="1496" y="1438" type="curve" smooth="yes"/>
      <point x="1552" y="1438" type="line" smooth="yes"/>
      <point x="1571" y="1438"/>
      <point x="1581" y="1426"/>
      <point x="1581" y="1392" type="curve" smooth="yes"/>
      <point x="1581" y="631" type="line"/>
      <point x="1696" y="631" type="line" smooth="yes"/>
      <point x="1723" y="631"/>
      <point x="1734" y="621"/>
      <point x="1734" y="591" type="curve" smooth="yes"/>
      <point x="1734" y="555" type="line" smooth="yes"/>
      <point x="1734" y="525"/>
      <point x="1723" y="516"/>
      <point x="1696" y="516" type="curve" smooth="yes"/>
      <point x="1581" y="516" type="line"/>
      <point x="1581" y="333" type="line" smooth="yes"/>
      <point x="1581" y="299"/>
      <point x="1571" y="288"/>
      <point x="1552" y="288" type="curve" smooth="yes"/>
    </contour>
    <contour>
      <point x="665" y="124" type="line" smooth="yes"/>
      <point x="662" y="124"/>
      <point x="658" y="133"/>
      <point x="658" y="143" type="curve" smooth="yes"/>
      <point x="658" y="145"/>
      <point x="659" y="148"/>
      <point x="659" y="150" type="curve" smooth="yes"/>
      <point x="900" y="1579" type="line" smooth="yes"/>
      <point x="902" y="1595"/>
      <point x="909" y="1606"/>
      <point x="915" y="1606" type="curve" smooth="yes"/>
      <point x="974" y="1606" type="line" smooth="yes"/>
      <point x="978" y="1606"/>
      <point x="981" y="1597"/>
      <point x="981" y="1587" type="curve" smooth="yes"/>
      <point x="981" y="1584"/>
      <point x="980" y="1582"/>
      <point x="980" y="1579" type="curve" smooth="yes"/>
      <point x="740" y="150" type="line" smooth="yes"/>
      <point x="738" y="134"/>
      <point x="732" y="123"/>
      <point x="726" y="123" type="curve" smooth="yes"/>
    </contour>
    <contour>
      <point x="375" y="288" type="line" smooth="yes"/>
      <point x="364" y="288"/>
      <point x="357" y="308"/>
      <point x="357" y="342" type="curve" smooth="yes"/>
      <point x="357" y="1262" type="line" smooth="yes"/>
      <point x="357" y="1278"/>
      <point x="352" y="1285"/>
      <point x="346" y="1283" type="curve" smooth="yes"/>
      <point x="346" y="1283"/>
      <point x="277" y="1266"/>
      <point x="276" y="1266" type="curve" smooth="yes"/>
      <point x="265" y="1264"/>
      <point x="258" y="1270"/>
      <point x="258" y="1296" type="curve" smooth="yes"/>
      <point x="258" y="1358" type="line" smooth="yes"/>
      <point x="258" y="1379"/>
      <point x="267" y="1385"/>
      <point x="277" y="1387" type="curve" smooth="yes"/>
      <point x="459" y="1435" type="line" smooth="yes"/>
      <point x="463" y="1436"/>
      <point x="467" y="1437"/>
      <point x="470" y="1437" type="curve" smooth="yes"/>
      <point x="480" y="1437"/>
      <point x="486" y="1429"/>
      <point x="486" y="1403" type="curve" smooth="yes"/>
      <point x="486" y="342" type="line" smooth="yes"/>
      <point x="486" y="308"/>
      <point x="477" y="288"/>
      <point x="466" y="288" type="curve" smooth="yes"/>
    </contour>
  </outline>
</glyph>
<glyph name="AE" format="1">
  <advance width="1011"/>
  <unicode hex="00C6"/>
  <outline>
    <contour>
      <point x="324" y="436" type="curve" smooth="yes"/>
      <point x="522" y="436" type="line" smooth="yes"/>
      <point x="525" y="436"/>
      <point x="526" y="450"/>
      <point x="526" y="456" type="curve" smooth="yes"/>
      <point x="526" y="1285" type="line" smooth="yes"/>
      <point x="526" y="1288"/>
      <point x="525" y="1298"/>
      <point x="525" y="1298" type="curve" smooth="yes"/>
      <point x="524" y="1298"/>
      <point x="521" y="1290"/>
      <point x="520" y="1287" type="curve" smooth="yes"/>
      <point x="313" y="460" type="line" smooth="yes"/>
      <point x="312" y="456"/>
      <point x="311" y="451"/>
      <point x="311" y="448" type="curve" smooth="yes"/>
      <point x="311" y="440"/>
      <point x="315" y="436"/>
    </contour>
    <contour>
      <point x="69" y="0" type="line" smooth="yes"/>
      <point x="61" y="0"/>
      <point x="55" y="7"/>
      <point x="55" y="30" type="curve" smooth="yes"/>
      <point x="55" y="34"/>
      <point x="54" y="39"/>
      <point x="54" y="45" type="curve" smooth="yes"/>
      <point x="54" y="50"/>
      <point x="55" y="55"/>
      <point x="57" y="60" type="curve" smooth="yes"/>
      <point x="411" y="1386" type="line"/>
      <point x="420" y="1426"/>
      <point x="433" y="1438"/>
      <point x="451" y="1438" type="curve" smooth="yes"/>
      <point x="905" y="1438" type="line" smooth="yes"/>
      <point x="919" y="1438"/>
      <point x="929" y="1436"/>
      <point x="929" y="1402" type="curve" smooth="yes"/>
      <point x="929" y="1346" type="line" smooth="yes"/>
      <point x="929" y="1311"/>
      <point x="919" y="1310"/>
      <point x="905" y="1310" type="curve" smooth="yes"/>
      <point x="698" y="1310" type="line" smooth="yes"/>
      <point x="690" y="1310"/>
      <point x="687" y="1299"/>
      <point x="687" y="1279" type="curve" smooth="yes"/>
      <point x="687" y="824" type="line" smooth="yes"/>
      <point x="687" y="815"/>
      <point x="692" y="802"/>
      <point x="695" y="802" type="curve" smooth="yes"/>
      <point x="881" y="802" type="line" smooth="yes"/>
      <point x="896" y="802"/>
      <point x="906" y="796"/>
      <point x="906" y="763" type="curve" smooth="yes"/>
      <point x="906" y="708" type="line" smooth="yes"/>
      <point x="906" y="674"/>
      <point x="896" y="667"/>
      <point x="881" y="667" type="curve" smooth="yes"/>
      <point x="696" y="667" type="line" smooth="yes"/>
      <point x="693" y="667"/>
      <point x="687" y="650"/>
      <point x="687" y="641" type="curve" smooth="yes"/>
      <point x="687" y="128" type="line"/>
      <point x="929" y="128" type="line" smooth="yes"/>
      <point x="943" y="128"/>
      <point x="953" y="127"/>
      <point x="953" y="92" type="curve" smooth="yes"/>
      <point x="953" y="36" type="line" smooth="yes"/>
      <point x="953" y="2"/>
      <point x="943" y="0"/>
      <point x="929" y="0" type="curve" smooth="yes"/>
      <point x="551" y="0" type="line" smooth="yes"/>
      <point x="536" y="0"/>
      <point x="526" y="2"/>
      <point x="526" y="39" type="curve" smooth="yes"/>
      <point x="526" y="331" type="line"/>
      <point x="286" y="331" type="line" smooth="yes"/>
      <point x="281" y="331"/>
      <point x="279" y="322"/>
      <point x="277" y="313" type="curve" smooth="yes"/>
      <point x="206" y="45" type="line"/>
      <point x="199" y="7"/>
      <point x="188" y="0"/>
      <point x="172" y="0" type="curve" smooth="yes"/>
    </contour>
  </outline>
</glyph>
<glyph name="Thorn" format="1">
  <advance width="835"/>
  <unicode hex="00DE"/>
  <outline>
    <contour>
      <point x="281" y="487" type="curve" smooth="yes"/>
      <point x="418" y="487" type="line" smooth="yes"/>
      <point x="561" y="487"/>
      <point x="615" y="513"/>
      <point x="615" y="772" type="curve" smooth="yes"/>
      <point x="615" y="1065"/>
      <point x="524" y="1072"/>
      <point x="396" y="1072" type="curve" smooth="yes"/>
      <point x="282" y="1072" type="line" smooth="yes"/>
      <point x="277" y="1072"/>
      <point x="273" y="1067"/>
      <point x="273" y="1055" type="curve" smooth="yes"/>
      <point x="273" y="503" type="line" smooth="yes"/>
      <point x="273" y="491"/>
      <point x="276" y="487"/>
    </contour>
    <contour>
      <point x="136" y="0" type="line" smooth="yes"/>
      <point x="122" y="0"/>
      <point x="112" y="9"/>
      <point x="112" y="49" type="curve" smooth="yes"/>
      <point x="112" y="1374" type="line" smooth="yes"/>
      <point x="112" y="1414"/>
      <point x="122" y="1423"/>
      <point x="137" y="1423" type="curve" smooth="yes"/>
      <point x="249" y="1423" type="line" smooth="yes"/>
      <point x="263" y="1423"/>
      <point x="273" y="1414"/>
      <point x="273" y="1374" type="curve" smooth="yes"/>
      <point x="273" y="1200" type="line"/>
      <point x="403" y="1200" type="line" smooth="yes"/>
      <point x="590" y="1200"/>
      <point x="776" y="1183"/>
      <point x="776" y="773" type="curve" smooth="yes"/>
      <point x="776" y="390"/>
      <point x="611" y="358"/>
      <point x="435" y="358" type="curve" smooth="yes"/>
      <point x="282" y="358" type="line" smooth="yes"/>
      <point x="277" y="358"/>
      <point x="273" y="355"/>
      <point x="273" y="342" type="curve" smooth="yes"/>
      <point x="273" y="49" type="line" smooth="yes"/>
      <point x="273" y="10"/>
      <point x="263" y="0"/>
      <point x="248" y="0" type="curve" smooth="yes"/>
    </contour>
  </outline>
</glyph>
<glyph name="ae" format="1">
  <advance width="1057"/>
  <unicode hex="00E6"/>
  <outline>
    <contour>
      <point x="601" y="562" type="curve" smooth="yes"/>
      <point x="847" y="562" type="line" smooth="yes"/>
      <point x="849" y="562"/>
      <point x="849" y="574"/>
      <point x="849" y="580" type="curve" smooth="yes"/>
      <point x="843" y="783"/>
      <point x="814" y="906"/>
      <point x="725" y="906" type="curve" smooth="yes"/>
      <point x="659" y="906"/>
      <point x="605" y="820"/>
      <point x="598" y="616" type="curve" smooth="yes"/>
      <point x="598" y="607"/>
      <point x="598" y="562"/>
    </contour>
    <contour>
      <point x="303" y="92" type="curve" smooth="yes"/>
      <point x="413" y="92"/>
      <point x="461" y="260"/>
      <point x="461" y="448" type="curve" smooth="yes"/>
      <point x="461" y="462"/>
      <point x="461" y="518"/>
      <point x="454" y="518" type="curve" smooth="yes"/>
      <point x="453" y="518"/>
      <point x="413" y="512"/>
      <point x="410" y="511" type="curve" smooth="yes"/>
      <point x="262" y="472"/>
      <point x="199" y="377"/>
      <point x="199" y="246" type="curve"/>
      <point x="200" y="152"/>
      <point x="226" y="92"/>
    </contour>
    <contour>
      <point x="279" y="-12" type="curve" smooth="yes"/>
      <point x="144" y="-12"/>
      <point x="76" y="79"/>
      <point x="76" y="238" type="curve" smooth="yes"/>
      <point x="76" y="612"/>
      <point x="421" y="584"/>
      <point x="458" y="613" type="curve"/>
      <point x="458" y="658" type="line" smooth="yes"/>
      <point x="458" y="797"/>
      <point x="443" y="905"/>
      <point x="343" y="905" type="curve" smooth="yes"/>
      <point x="254" y="905"/>
      <point x="225" y="822"/>
      <point x="211" y="762" type="curve"/>
      <point x="204" y="738"/>
      <point x="195" y="732"/>
      <point x="184" y="735" type="curve"/>
      <point x="172" y="737"/>
      <point x="103" y="758"/>
      <point x="102" y="764" type="curve"/>
      <point x="95" y="770"/>
      <point x="95" y="796"/>
      <point x="101" y="819" type="curve" smooth="yes"/>
      <point x="124" y="911"/>
      <point x="200" y="1018"/>
      <point x="342" y="1018" type="curve" smooth="yes"/>
      <point x="437" y="1018"/>
      <point x="512" y="968"/>
      <point x="542" y="843" type="curve"/>
      <point x="575" y="967"/>
      <point x="655" y="1019"/>
      <point x="727" y="1019" type="curve" smooth="yes"/>
      <point x="871" y="1019"/>
      <point x="954" y="895"/>
      <point x="961" y="568" type="curve" smooth="yes"/>
      <point x="961" y="559"/>
      <point x="958" y="473"/>
      <point x="930" y="473" type="curve" smooth="yes"/>
      <point x="604" y="473" type="line" smooth="yes"/>
      <point x="600" y="473"/>
      <point x="597" y="463"/>
      <point x="597" y="452" type="curve" smooth="yes"/>
      <point x="597" y="264"/>
      <point x="630" y="102"/>
      <point x="743" y="102" type="curve" smooth="yes"/>
      <point x="849" y="102"/>
      <point x="854" y="217"/>
      <point x="860" y="287" type="curve" smooth="yes"/>
      <point x="862" y="299"/>
      <point x="867" y="307"/>
      <point x="873" y="307" type="curve" smooth="yes"/>
      <point x="933" y="307" type="line" smooth="yes"/>
      <point x="943" y="307"/>
      <point x="949" y="303"/>
      <point x="949" y="293" type="curve"/>
      <point x="950" y="288"/>
      <point x="952" y="260"/>
      <point x="952" y="246" type="curve" smooth="yes"/>
      <point x="952" y="108"/>
      <point x="898" y="-11"/>
      <point x="738" y="-11" type="curve" smooth="yes"/>
      <point x="637" y="-11"/>
      <point x="558" y="71"/>
      <point x="522" y="225" type="curve"/>
      <point x="483" y="76"/>
      <point x="405" y="-12"/>
    </contour>
  </outline>
</glyph>
<glyph name="hbar" format="1">
  <advance width="740"/>
  <unicode hex="0127"/>
  <outline>
    <contour>
      <point x="126" y="0" type="line" smooth="yes"/>
      <point x="112" y="0"/>
      <point x="102" y="7"/>
      <point x="102" y="50" type="curve" smooth="yes"/>
      <point x="102" y="1179" type="line"/>
      <point x="41" y="1179" type="line" smooth="yes"/>
      <point x="21" y="1179"/>
      <point x="10" y="1187"/>
      <point x="10" y="1213" type="curve" smooth="yes"/>
      <point x="10" y="1235" type="line" smooth="yes"/>
      <point x="10" y="1263"/>
      <point x="21" y="1271"/>
      <point x="41" y="1271" type="curve" smooth="yes"/>
      <point x="102" y="1271" type="line"/>
      <point x="102" y="1383" type="line" smooth="yes"/>
      <point x="102" y="1426"/>
      <point x="112" y="1437"/>
      <point x="126" y="1437" type="curve" smooth="yes"/>
      <point x="224" y="1437" type="line" smooth="yes"/>
      <point x="239" y="1437"/>
      <point x="249" y="1426"/>
      <point x="249" y="1383" type="curve" smooth="yes"/>
      <point x="249" y="1271" type="line"/>
      <point x="458" y="1271" type="line" smooth="yes"/>
      <point x="478" y="1271"/>
      <point x="490" y="1263"/>
      <point x="490" y="1237" type="curve" smooth="yes"/>
      <point x="490" y="1214" type="line" smooth="yes"/>
      <point x="490" y="1187"/>
      <point x="478" y="1179"/>
      <point x="458" y="1179" type="curve" smooth="yes"/>
      <point x="249" y="1179" type="line"/>
      <point x="249" y="861" type="line" smooth="yes"/>
      <point x="249" y="852"/>
      <point x="251" y="849"/>
      <point x="253" y="849" type="curve" smooth="yes"/>
      <point x="255" y="849"/>
      <point x="257" y="851"/>
      <point x="259" y="854" type="curve" smooth="yes"/>
      <point x="304" y="977"/>
      <point x="387" y="1018"/>
      <point x="451" y="1018" type="curve" smooth="yes"/>
      <point x="575" y="1018"/>
      <point x="651" y="925"/>
      <point x="651" y="582" type="curve" smooth="yes"/>
      <point x="651" y="50" type="line" smooth="yes"/>
      <point x="651" y="7"/>
      <point x="640" y="0"/>
      <point x="626" y="0" type="curve" smooth="yes"/>
      <point x="528" y="0" type="line" smooth="yes"/>
      <point x="513" y="0"/>
      <point x="504" y="7"/>
      <point x="504" y="50" type="curve" smooth="yes"/>
      <point x="504" y="606" type="line" smooth="yes"/>
      <point x="504" y="816"/>
      <point x="479" y="905"/>
      <point x="406" y="905" type="curve" smooth="yes"/>
      <point x="321" y="905"/>
      <point x="249" y="766"/>
      <point x="249" y="595" type="curve" smooth="yes"/>
      <point x="249" y="50" type="line" smooth="yes"/>
      <point x="249" y="7"/>
      <point x="239" y="0"/>
      <point x="225" y="0" type="curve" smooth="yes"/>
    </contour>
  </outline>
</glyph>
<glyph name="lslash" format="1">
  <advance width="338"/>
  <unicode hex="0142"/>
  <outline>
    <contour>
      <point x="221" y="0" type="curve" smooth="yes"/>
      <point x="134" y="0" type="line" smooth="yes"/>
      <point x="119" y="0"/>
      <point x="109" y="15"/>
      <point x="109" y="58" type="curve" smooth="yes"/>
      <point x="109" y="751" type="line"/>
      <point x="-2" y="722" type="line" smooth="yes"/>
      <point x="-16" y="718"/>
      <point x="-29" y="721"/>
      <point x="-29" y="764" type="curve" smooth="yes"/>
      <point x="-29" y="811" type="line" smooth="yes"/>
      <point x="-29" y="854"/>
      <point x="-16" y="849"/>
      <point x="-2" y="853" type="curve" smooth="yes"/>
      <point x="109" y="882" type="line"/>
      <point x="109" y="1392" type="line" smooth="yes"/>
      <point x="109" y="1435"/>
      <point x="119" y="1455"/>
      <point x="134" y="1455" type="curve" smooth="yes"/>
      <point x="221" y="1455" type="line" smooth="yes"/>
      <point x="236" y="1455"/>
      <point x="245" y="1435"/>
      <point x="245" y="1392" type="curve" smooth="yes"/>
      <point x="245" y="918" type="line"/>
      <point x="355" y="946" type="line" smooth="yes"/>
      <point x="369" y="950"/>
      <point x="382" y="948"/>
      <point x="382" y="905" type="curve" smooth="yes"/>
      <point x="382" y="857" type="line" smooth="yes"/>
      <point x="382" y="814"/>
      <point x="369" y="820"/>
      <point x="355" y="816" type="curve" smooth="yes"/>
      <point x="245" y="787" type="line"/>
      <point x="245" y="58" type="line" smooth="yes"/>
      <point x="245" y="15"/>
      <point x="236" y="0"/>
    </contour>
  </outline>
</glyph>
<glyph name="florin" format="1">
  <advance width="491"/>
  <unicode hex="0192"/>
  <outline>
    <contour>
      <point x="12" y="-124" type="curve" smooth="yes"/>
      <point x="-9" y="-124" type="line" smooth="yes"/>
      <point x="-26" y="-124"/>
      <point x="-36" y="-122"/>
      <point x="-37" y="-105" type="curve"/>
      <point x="-39" y="-105"/>
      <point x="-39" y="-93"/>
      <point x="-39" y="-82" type="curve" smooth="yes"/>
      <point x="-39" y="-64" type="line"/>
      <point x="-38" y="-32"/>
      <point x="-36" y="-11"/>
      <point x="-22" y="-11" type="curve" smooth="yes"/>
      <point x="-8" y="-11" type="line" smooth="yes"/>
      <point x="71" y="-11"/>
      <point x="101" y="31"/>
      <point x="118" y="215" type="curve"/>
      <point x="165" y="759" type="line" smooth="yes"/>
      <point x="167" y="779"/>
      <point x="168" y="788"/>
      <point x="161" y="788" type="curve" smooth="yes"/>
      <point x="83" y="788" type="line" smooth="yes"/>
      <point x="68" y="788"/>
      <point x="61" y="793"/>
      <point x="64" y="823" type="curve" smooth="yes"/>
      <point x="69" y="874" type="line" smooth="yes"/>
      <point x="72" y="903"/>
      <point x="82" y="913"/>
      <point x="97" y="913" type="curve" smooth="yes"/>
      <point x="174" y="913" type="line" smooth="yes"/>
      <point x="182" y="913"/>
      <point x="184" y="948"/>
      <point x="186" y="970" type="curve" smooth="yes"/>
      <point x="218" y="1294"/>
      <point x="293" y="1368"/>
      <point x="436" y="1368" type="curve" smooth="yes"/>
      <point x="467" y="1368"/>
      <point x="492" y="1358"/>
      <point x="491" y="1351" type="curve"/>
      <point x="495" y="1351"/>
      <point x="497" y="1316"/>
      <point x="497" y="1306" type="curve" smooth="yes"/>
      <point x="496" y="1275"/>
      <point x="493" y="1253"/>
      <point x="479" y="1253" type="curve" smooth="yes"/>
      <point x="455" y="1253" type="line" smooth="yes"/>
      <point x="376" y="1253"/>
      <point x="348" y="1207"/>
      <point x="330" y="1027" type="curve"/>
      <point x="318" y="919" type="line" smooth="yes"/>
      <point x="318" y="916"/>
      <point x="320" y="913"/>
      <point x="321" y="913" type="curve" smooth="yes"/>
      <point x="431" y="913" type="line" smooth="yes"/>
      <point x="446" y="913"/>
      <point x="452" y="905"/>
      <point x="449" y="877" type="curve" smooth="yes"/>
      <point x="443" y="823" type="line" smooth="yes"/>
      <point x="440" y="793"/>
      <point x="432" y="788"/>
      <point x="417" y="788" type="curve" smooth="yes"/>
      <point x="317" y="788" type="line" smooth="yes"/>
      <point x="310" y="788"/>
      <point x="307" y="779"/>
      <point x="305" y="759" type="curve" smooth="yes"/>
      <point x="264" y="274" type="line" smooth="yes"/>
      <point x="238" y="-30"/>
      <point x="154" y="-124"/>
    </contour>
  </outline>
</glyph>
<glyph name="uni0237" format="1">
  <advance width="377"/>
  <unicode hex="0237"/>
  <outline>
    <contour>
      <point x="35" y="-321" type="line" smooth="yes"/>
      <point x="20" y="-321"/>
      <point x="12" y="-302"/>
      <point x="12" y="-274" type="curve" smooth="yes"/>
      <point x="12" y="-222" type="line" smooth="yes"/>
      <point x="12" y="-196"/>
      <point x="19" y="-180"/>
      <point x="35" y="-180" type="curve" smooth="yes"/>
      <point x="74" y="-180" type="line" smooth="yes"/>
      <point x="122" y="-180"/>
      <point x="144" y="-151"/>
      <point x="144" y="1" type="curve" smooth="yes"/>
      <point x="144" y="946" type="line" smooth="yes"/>
      <point x="144" y="989"/>
      <point x="154" y="1006"/>
      <point x="168" y="1006" type="curve" smooth="yes"/>
      <point x="255" y="1006" type="line" smooth="yes"/>
      <point x="271" y="1006"/>
      <point x="280" y="989"/>
      <point x="280" y="946" type="curve" smooth="yes"/>
      <point x="280" y="0" type="line" smooth="yes"/>
      <point x="280" y="-292"/>
      <point x="210" y="-321"/>
      <point x="105" y="-321" type="curve" smooth="yes"/>
    </contour>
  </outline>
</glyph>
<glyph name="uni02C9" format="1">
  <advance width="783"/>
  <unicode hex="02C9"/>
  <outline>
    <contour>
      <point x="220" y="489" type="line" smooth="yes"/>
      <point x="199" y="489"/>
      <point x="188" y="498"/>
      <point x="188" y="525" type="curve" smooth="yes"/>
      <point x="188" y="549" type="line" smooth="yes"/>
      <point x="188" y="577"/>
      <point x="199" y="586"/>
      <point x="220" y="586" type="curve" smooth="yes"/>
      <point x="579" y="586" type="line" smooth="yes"/>
      <point x="600" y="586"/>
      <point x="612" y="577"/>
      <point x="612" y="550" type="curve" smooth="yes"/>
      <point x="612" y="526" type="line" smooth="yes"/>
      <point x="612" y="498"/>
      <point x="600" y="489"/>
      <point x="579" y="489" type="curve" smooth="yes"/>
    </contour>
  </outline>
</glyph>
<glyph name="breve" format="1">
  <advance width="1403"/>
  <unicode hex="02D8"/>
  <outline>
    <contour>
      <point x="609" y="1292" type="curve" smooth="yes"/>
      <point x="517" y="1292"/>
      <point x="425" y="1349"/>
      <point x="425" y="1478" type="curve"/>
      <point x="503" y="1478" type="line"/>
      <point x="503" y="1408"/>
      <point x="557" y="1380"/>
      <point x="611" y="1380" type="curve" smooth="yes"/>
      <point x="665" y="1380"/>
      <point x="719" y="1408"/>
      <point x="719" y="1478" type="curve"/>
      <point x="796" y="1478" type="line"/>
      <point x="795" y="1349"/>
      <point x="702" y="1292"/>
    </contour>
  </outline>
</glyph>
<glyph name="dotaccent" format="1">
  <advance width="378"/>
  <unicode hex="02D9"/>
  <outline>
    <contour>
      <point x="39" y="67" type="line" smooth="yes"/>
      <point x="24" y="67"/>
      <point x="12" y="77"/>
      <point x="12" y="120" type="curve" smooth="yes"/>
      <point x="12" y="231" type="line" smooth="yes"/>
      <point x="12" y="274"/>
      <point x="24" y="283"/>
      <point x="39" y="283" type="curve" smooth="yes"/>
      <point x="161" y="283" type="line" smooth="yes"/>
      <point x="176" y="283"/>
      <point x="188" y="274"/>
      <point x="188" y="231" type="curve" smooth="yes"/>
      <point x="188" y="120" type="line" smooth="yes"/>
      <point x="188" y="77"/>
      <point x="176" y="67"/>
      <point x="161" y="67" type="curve" smooth="yes"/>
    </contour>
  </outline>
</glyph>
<glyph name="endash" format="1">
  <advance width="1024"/>
  <unicode hex="2013"/>
  <outline>
    <contour>
      <point x="120" y="489" type="line" smooth="yes"/>
      <point x="99" y="489"/>
      <point x="88" y="498"/>
      <point x="88" y="525" type="curve" smooth="yes"/>
      <point x="88" y="549" type="line" smooth="yes"/>
      <point x="88" y="577"/>
      <point x="99" y="586"/>
      <point x="120" y="586" type="curve" smooth="yes"/>
      <point x="898" y="586" type="line" smooth="yes"/>
      <point x="919" y="586"/>
      <point x="931" y="577"/>
      <point x="931" y="550" type="curve" smooth="yes"/>
      <point x="931" y="526" type="line" smooth="yes"/>
      <point x="931" y="498"/>
      <point x="919" y="489"/>
      <point x="898" y="489" type="curve" smooth="yes"/>
    </contour>
  </outline>
</glyph>
<glyph name="quotedblleft" format="1">
  <advance width="575"/>
  <unicode hex="201C"/>
  <outline>
    <contour>
      <point x="361" y="874" type="line" smooth="yes"/>
      <point x="345" y="874"/>
      <point x="334" y="899"/>
      <point x="334" y="942" type="curve" smooth="yes"/>
      <point x="334" y="1121" type="line" smooth="yes"/>
      <point x="334" y="1358"/>
      <point x="413" y="1481"/>
      <point x="461" y="1504" type="curve" smooth="yes"/>
      <point x="463" y="1505"/>
      <point x="464" y="1505"/>
      <point x="466" y="1505" type="curve" smooth="yes"/>
      <point x="476" y="1505"/>
      <point x="485" y="1490"/>
      <point x="485" y="1459" type="curve" smooth="yes"/>
      <point x="485" y="1444" type="line" smooth="yes"/>
      <point x="485" y="1390"/>
      <point x="481" y="1394"/>
      <point x="463" y="1369" type="curve" smooth="yes"/>
      <point x="434" y="1330"/>
      <point x="419" y="1254"/>
      <point x="419" y="1212" type="curve" smooth="yes"/>
      <point x="419" y="1196"/>
      <point x="420" y="1185"/>
      <point x="425" y="1185" type="curve" smooth="yes"/>
      <point x="464" y="1185" type="line" smooth="yes"/>
      <point x="477" y="1185"/>
      <point x="485" y="1168"/>
      <point x="485" y="1130" type="curve" smooth="yes"/>
      <point x="485" y="935" type="line" smooth="yes"/>
      <point x="485" y="892"/>
      <point x="478" y="874"/>
      <point x="464" y="874" type="curve" smooth="yes"/>
    </contour>
    <contour>
      <point x="115" y="874" type="line" smooth="yes"/>
      <point x="99" y="874"/>
      <point x="88" y="899"/>
      <point x="88" y="942" type="curve" smooth="yes"/>
      <point x="88" y="1121" type="line" smooth="yes"/>
      <point x="88" y="1358"/>
      <point x="167" y="1481"/>
      <point x="215" y="1504" type="curve" smooth="yes"/>
      <point x="217" y="1505"/>
      <point x="218" y="1505"/>
      <point x="220" y="1505" type="curve" smooth="yes"/>
      <point x="230" y="1505"/>
      <point x="239" y="1490"/>
      <point x="239" y="1459" type="curve" smooth="yes"/>
      <point x="239" y="1444" type="line" smooth="yes"/>
      <point x="239" y="1390"/>
      <point x="235" y="1394"/>
      <point x="217" y="1369" type="curve" smooth="yes"/>
      <point x="188" y="1330"/>
      <point x="173" y="1254"/>
      <point x="173" y="1212" type="curve" smooth="yes"/>
      <point x="173" y="1196"/>
      <point x="174" y="1185"/>
      <point x="179" y="1185" type="curve" smooth="yes"/>
      <point x="218" y="1185" type="line" smooth="yes"/>
      <point x="231" y="1185"/>
      <point x="239" y="1168"/>
      <point x="239" y="1130" type="curve" smooth="yes"/>
      <point x="239" y="935" type="line" smooth="yes"/>
      <point x="239" y="892"/>
      <point x="232" y="874"/>
      <point x="218" y="874" type="curve" smooth="yes"/>
    </contour>
  </outline>
</glyph>
<glyph name="quotedblbase" format="1">
  <advance width="512"/>
  <unicode hex="201E"/>
  <outline>
    <contour>
      <point x="369" y="-210" type="line" smooth="yes"/>
      <point x="355" y="-210"/>
      <point x="350" y="-183"/>
      <point x="348" y="-144" type="curve"/>
      <point x="314" y="249" type="line" smooth="yes"/>
      <point x="314" y="257" type="line" smooth="yes"/>
      <point x="314" y="291"/>
      <point x="325" y="320"/>
      <point x="339" y="320" type="curve" smooth="yes"/>
      <point x="421" y="320" type="line" smooth="yes"/>
      <point x="435" y="320"/>
      <point x="445" y="289"/>
      <point x="445" y="253" type="curve" smooth="yes"/>
      <point x="445" y="248" type="line" smooth="yes"/>
      <point x="413" y="-144" type="line" smooth="yes"/>
      <point x="410" y="-183"/>
      <point x="407" y="-210"/>
      <point x="392" y="-210" type="curve" smooth="yes"/>
    </contour>
    <contour>
      <point x="122" y="-210" type="line" smooth="yes"/>
      <point x="108" y="-210"/>
      <point x="103" y="-183"/>
      <point x="101" y="-144" type="curve"/>
      <point x="67" y="249" type="line" smooth="yes"/>
      <point x="67" y="257" type="line" smooth="yes"/>
      <point x="67" y="291"/>
      <point x="78" y="320"/>
      <point x="92" y="320" type="curve" smooth="yes"/>
      <point x="174" y="320" type="line" smooth="yes"/>
      <point x="188" y="320"/>
      <point x="198" y="289"/>
      <point x="198" y="253" type="curve" smooth="yes"/>
      <point x="198" y="248" type="line" smooth="yes"/>
      <point x="166" y="-144" type="line" smooth="yes"/>
      <point x="163" y="-183"/>
      <point x="160" y="-210"/>
      <point x="145" y="-210" type="curve" smooth="yes"/>
    </contour>
  </outline>
</glyph>
<glyph name="dagger" format="1">
  <advance width="590"/>
  <unicode hex="2020"/>
  <outline>
    <contour>
      <point x="260" y="0" type="line" smooth="yes"/>
      <point x="245" y="0"/>
      <point x="236" y="15"/>
      <point x="236" y="58" type="curve" smooth="yes"/>
      <point x="236" y="925" type="line"/>
      <point x="-24" y="925" type="line" smooth="yes"/>
      <point x="-67" y="925"/>
      <point x="-77" y="935"/>
      <point x="-77" y="949" type="curve" smooth="yes"/>
      <point x="-77" y="1036" type="line" smooth="yes"/>
      <point x="-77" y="1051"/>
      <point x="-67" y="1062"/>
      <point x="-24" y="1062" type="curve" smooth="yes"/>
      <point x="236" y="1062" type="line"/>
      <point x="236" y="1392" type="line" smooth="yes"/>
      <point x="236" y="1435"/>
      <point x="245" y="1455"/>
      <point x="260" y="1455" type="curve" smooth="yes"/>
      <point x="347" y="1455" type="line" smooth="yes"/>
      <point x="362" y="1455"/>
      <point x="372" y="1435"/>
      <point x="372" y="1392" type="curve" smooth="yes"/>
      <point x="372" y="1062" type="line"/>
      <point x="610" y="1062" type="line" smooth="yes"/>
      <point x="653" y="1062"/>
      <point x="667" y="1051"/>
      <point x="667" y="1036" type="curve" smooth="yes"/>
      <point x="667" y="949" type="line" smooth="yes"/>
      <point x="667" y="935"/>
      <point x="653" y="925"/>
      <point x="610" y="925" type="curve" smooth="yes"/>
      <point x="372" y="925" type="line"/>
      <point x="372" y="58" type="line" smooth="yes"/>
      <point x="372" y="15"/>
      <point x="362" y="0"/>
      <point x="347" y="0" type="curve" smooth="yes"/>
    </contour>
  </outline>
</glyph>
<glyph name="guilsinglleft" format="1">
  <advance width="494"/>
  <unicode hex="2039"/>
  <outline>
    <contour>
      <point x="387" y="226" type="curve" smooth="yes"/>
      <point x="385" y="226"/>
      <point x="256" y="357"/>
      <point x="253" y="360" type="curve" smooth="yes"/>
      <point x="245" y="369"/>
      <point x="91" y="537"/>
      <point x="91" y="558" type="curve"/>
      <point x="79" y="570"/>
      <point x="77" y="652"/>
      <point x="77" y="664" type="curve" smooth="yes"/>
      <point x="77" y="685"/>
      <point x="79" y="737"/>
      <point x="88" y="745" type="curve"/>
      <point x="88" y="757"/>
      <point x="214" y="887"/>
      <point x="227" y="900" type="curve" smooth="yes"/>
      <point x="228" y="902"/>
      <point x="380" y="1062"/>
      <point x="381" y="1062" type="curve" smooth="yes"/>
      <point x="382" y="1062"/>
      <point x="383" y="1063"/>
      <point x="384" y="1063" type="curve" smooth="yes"/>
      <point x="390" y="1063"/>
      <point x="394" y="1056"/>
      <point x="396" y="1046" type="curve"/>
      <point x="400" y="1046"/>
      <point x="402" y="975"/>
      <point x="402" y="961" type="curve" smooth="yes"/>
      <point x="402" y="940"/>
      <point x="397" y="912"/>
      <point x="391" y="903" type="curve"/>
      <point x="391" y="880"/>
      <point x="311" y="809"/>
      <point x="300" y="798" type="curve" smooth="yes"/>
      <point x="299" y="797"/>
      <point x="167" y="653"/>
      <point x="167" y="650" type="curve" smooth="yes"/>
      <point x="166" y="646"/>
      <point x="166" y="640"/>
      <point x="167" y="636" type="curve" smooth="yes"/>
      <point x="167" y="633"/>
      <point x="245" y="559"/>
      <point x="247" y="558" type="curve"/>
      <point x="253" y="549"/>
      <point x="388" y="402"/>
      <point x="388" y="381" type="curve"/>
      <point x="399" y="371"/>
      <point x="402" y="300"/>
      <point x="402" y="276" type="curve" smooth="yes"/>
      <point x="402" y="264"/>
      <point x="398" y="240"/>
      <point x="395" y="240" type="curve"/>
      <point x="394" y="229"/>
      <point x="392" y="225"/>
      <point x="389" y="225" type="curve" smooth="yes"/>
      <point x="388" y="225"/>
      <point x="388" y="226"/>
    </contour>
  </outline>
</glyph>
<glyph name="minus" format="1">
  <advance width="875"/>
  <unicode hex="2212"/>
  <outline>
    <contour>
      <point x="133" y="612" type="line" smooth="yes"/>
      <point x="107" y="612"/>
      <point x="89" y="626"/>
      <point x="89" y="659" type="curve" smooth="yes"/>
      <point x="89" y="700" type="line" smooth="yes"/>
      <point x="89" y="734"/>
      <point x="107" y="749"/>
      <point x="133" y="749" type="curve" smooth="yes"/>
      <point x="742" y="749" type="line" smooth="yes"/>
      <point x="768" y="749"/>
      <point x="786" y="734"/>
      <point x="786" y="701" type="curve" smooth="yes"/>
      <point x="786" y="660" type="line" smooth="yes"/>
      <point x="786" y="626"/>
      <point x="768" y="612"/>
      <point x="742" y="612" type="curve" smooth="yes"/>
    </contour>
  </outline>
</glyph>
<glyph name="uniFB00" format="1">
  <advance width="924"/>
  <unicode hex="FB00"/>
  <outline>
    <contour>
      <point x="619" y="0" type="line" smooth="yes"/>
      <point x="605" y="0"/>
      <point x="593" y="23"/>
      <point x="593" y="66" type="curve" smooth="yes"/>
      <point x="593" y="853" type="line" smooth="yes"/>
      <point x="593" y="873"/>
      <point x="593" y="881"/>
      <point x="586" y="881" type="curve" smooth="yes"/>
      <point x="276" y="881" type="line" smooth="yes"/>
      <point x="269" y="881"/>
      <point x="267" y="873"/>
      <point x="267" y="853" type="curve" smooth="yes"/>
      <point x="267" y="66" type="line" smooth="yes"/>
      <point x="267" y="23"/>
      <point x="256" y="0"/>
      <point x="242" y="0" type="curve" smooth="yes"/>
      <point x="157" y="0" type="line" smooth="yes"/>
      <point x="143" y="0"/>
      <point x="131" y="23"/>
      <point x="131" y="66" type="curve" smooth="yes"/>
      <point x="131" y="853" type="line" smooth="yes"/>
      <point x="131" y="873"/>
      <point x="131" y="881"/>
      <point x="124" y="881" type="curve" smooth="yes"/>
      <point x="73" y="881" type="line" smooth="yes"/>
      <point x="58" y="881"/>
      <point x="49" y="886"/>
      <point x="49" y="917" type="curve" smooth="yes"/>
      <point x="49" y="967" type="line" smooth="yes"/>
      <point x="49" y="997"/>
      <point x="58" y="1006"/>
      <point x="73" y="1006" type="curve" smooth="yes"/>
      <point x="124" y="1006" type="line" smooth="yes"/>
      <point x="131" y="1006"/>
      <point x="131" y="1017"/>
      <point x="131" y="1039" type="curve" smooth="yes"/>
      <point x="131" y="1382"/>
      <point x="195" y="1450"/>
      <point x="338" y="1450" type="curve" smooth="yes"/>
      <point x="358" y="1450"/>
      <point x="409" y="1448"/>
      <point x="419" y="1446" type="curve" smooth="yes"/>
      <point x="429" y="1444"/>
      <point x="440" y="1442"/>
      <point x="440" y="1414" type="curve" smooth="yes"/>
      <point x="440" y="1364" type="line" smooth="yes"/>
      <point x="440" y="1330"/>
      <point x="440" y="1324"/>
      <point x="427" y="1324" type="curve" smooth="yes"/>
      <point x="369" y="1324" type="line" smooth="yes"/>
      <point x="290" y="1324"/>
      <point x="267" y="1277"/>
      <point x="267" y="1097" type="curve" smooth="yes"/>
      <point x="267" y="1012" type="line" smooth="yes"/>
      <point x="267" y="1009"/>
      <point x="269" y="1006"/>
      <point x="270" y="1006" type="curve" smooth="yes"/>
      <point x="586" y="1006" type="line" smooth="yes"/>
      <point x="593" y="1006"/>
      <point x="593" y="1017"/>
      <point x="593" y="1039" type="curve" smooth="yes"/>
      <point x="593" y="1382"/>
      <point x="657" y="1450"/>
      <point x="800" y="1450" type="curve" smooth="yes"/>
      <point x="820" y="1450"/>
      <point x="871" y="1448"/>
      <point x="881" y="1446" type="curve" smooth="yes"/>
      <point x="891" y="1444"/>
      <point x="902" y="1442"/>
      <point x="902" y="1414" type="curve" smooth="yes"/>
      <point x="902" y="1364" type="line" smooth="yes"/>
      <point x="902" y="1330"/>
      <point x="902" y="1324"/>
      <point x="889" y="1324" type="curve" smooth="yes"/>
      <point x="831" y="1324" type="line" smooth="yes"/>
      <point x="752" y="1324"/>
      <point x="729" y="1277"/>
      <point x="729" y="1097" type="curve" smooth="yes"/>
      <point x="729" y="1012" type="line" smooth="yes"/>
      <point x="729" y="1009"/>
      <point x="731" y="1006"/>
      <point x="732" y="1006" type="curve" smooth="yes"/>
      <point x="873" y="1006" type="line" smooth="yes"/>
      <point x="888" y="1006"/>
      <point x="895" y="1000"/>
      <point x="895" y="971" type="curve" smooth="yes"/>
      <point x="895" y="917" type="line" smooth="yes"/>
      <point x="895" y="887"/>
      <point x="888" y="881"/>
      <point x="873" y="881" type="curve" smooth="yes"/>
      <point x="738" y="881" type="line" smooth="yes"/>
      <point x="731" y="881"/>
      <point x="729" y="873"/>
      <point x="729" y="853" type="curve" smooth="yes"/>
      <point x="729" y="66" type="line" smooth="yes"/>
      <point x="729" y="23"/>
      <point x="718" y="0"/>
      <point x="704" y="0" type="curve" smooth="yes"/>
    </contour>
  </outline>
</glyph>
